# xmcd CD database file
#
# Track frame offsets:
#	150
#	20662
#	43534
#	64002
#
# Disc length: 1156 seconds
#
# Revision: 5
# Processed by: cddbd v1.5.2PL0 Copyright (c) Steve Scherf et al.
# Submitted via: CDex 1.70beta3
#
DISCID=2d048204
DTITLE=野水いおり - Black † White
DYEAR=2013
DGENRE=seiyu
TTITLE0=Black † White
TTITLE1=サイレン
TTITLE2=Black † White (without Iori)
TTITLE3=サイレン (without Iori)
EXTD=YEAR: 2013
EXTT0=
EXTT1=
EXTT2=
EXTT3=
PLAYORDER=
